<?xml version="1.0" standalone="no"?>
<!DOCTYPE svg PUBLIC "-//W3C//DTD SVG 20010904//EN"
 "http://www.w3.org/TR/2001/REC-SVG-20010904/DTD/svg10.dtd">
<svg version="1.0" xmlns="http://www.w3.org/2000/svg"
 width="512.000000pt" height="512.000000pt" viewBox="0 0 512.000000 512.000000"
 preserveAspectRatio="xMidYMid meet">
<metadata>
Created by potrace 1.14, written by Peter Selinger 2001-2017
</metadata>
<g transform="translate(0.000000,512.000000) scale(0.100000,-0.100000)"
fill="#000000" stroke="none">
<path d="M0 2560 l0 -2560 2560 0 2560 0 0 2560 0 2560 -2560 0 -2560 0 0
-2560z m2040 133 c0 -109 -5 -225 -10 -258 -12 -75 -49 -129 -114 -170 -40
-24 -62 -30 -122 -33 -64 -4 -78 -1 -123 24 -108 58 -155 175 -120 295 27 90
126 160 228 160 70 1 104 -8 98 -24 -3 -7 -10 -11 -17 -9 -36 8 -131 2 -161
-11 -142 -60 -171 -253 -54 -355 47 -42 77 -53 141 -53 64 0 109 18 151 61 61
62 63 74 63 334 0 229 1 236 20 236 19 0 20 -7 20 -197z m760 108 l0 -90 52
-3 c74 -4 77 -28 3 -28 l-57 0 4 -132 c3 -124 5 -136 31 -180 32 -56 75 -88
136 -104 55 -13 67 -34 19 -34 -78 1 -181 85 -206 168 -8 25 -12 121 -12 266
0 194 2 226 15 226 12 0 15 -17 15 -89z m778 -165 l-3 -254 -30 -43 c-17 -24
-53 -57 -80 -74 -41 -25 -61 -31 -124 -33 -71 -3 -80 -1 -131 30 -98 59 -141
171 -110 282 26 96 124 167 229 167 70 1 104 -8 98 -24 -3 -7 -10 -11 -17 -9
-36 8 -131 2 -161 -11 -105 -44 -157 -179 -110 -282 19 -44 78 -101 119 -116
36 -14 113 -13 156 1 38 12 111 85 126 126 6 14 10 131 10 260 0 205 2 234 15
234 14 0 16 -30 13 -254z m-1073 55 c54 -25 111 -86 130 -140 30 -87 14 -167
-49 -238 -52 -59 -104 -82 -184 -83 -141 0 -245 101 -245 240 0 96 59 187 147
226 46 20 153 17 201 -5z"/>
<path d="M2314 2666 c-43 -19 -101 -81 -115 -123 -18 -56 -7 -145 24 -190 41
-58 89 -86 158 -91 78 -6 138 17 183 69 89 104 61 258 -59 326 -47 26 -141 31
-191 9z"/>
</g>
</svg>
