<?xml version="1.0" encoding="UTF-8" standalone="no"?>
<svg
   xmlns:dc="http://purl.org/dc/elements/1.1/"
   xmlns:cc="http://creativecommons.org/ns#"
   xmlns:rdf="http://www.w3.org/1999/02/22-rdf-syntax-ns#"
   xmlns:svg="http://www.w3.org/2000/svg"
   xmlns="http://www.w3.org/2000/svg"
   xmlns:sodipodi="http://sodipodi.sourceforge.net/DTD/sodipodi-0.dtd"
   xmlns:inkscape="http://www.inkscape.org/namespaces/inkscape"
   version="1.1"
   id="svg2"
   xml:space="preserve"
   width="170.66667"
   height="56"
   viewBox="0 0 170.66667 56"
   sodipodi:docname="VectorEPS_ByTailorBrands (1).eps"><metadata
     id="metadata8"><rdf:RDF><cc:Work
         rdf:about=""><dc:format>image/svg+xml</dc:format><dc:type
           rdf:resource="http://purl.org/dc/dcmitype/StillImage" /></cc:Work></rdf:RDF></metadata><defs
     id="defs6" /><sodipodi:namedview
     pagecolor="#ffffff"
     bordercolor="#666666"
     borderopacity="1"
     objecttolerance="10"
     gridtolerance="10"
     guidetolerance="10"
     inkscape:pageopacity="0"
     inkscape:pageshadow="2"
     inkscape:window-width="640"
     inkscape:window-height="480"
     id="namedview4" /><g
     id="g10"
     inkscape:groupmode="layer"
     inkscape:label="ink_ext_XXXXXX"
     transform="matrix(1.3333333,0,0,-1.3333333,0,56)"><g
       id="g12"
       transform="scale(0.1)"><path
         d="m 215.578,296.055 -7.558,-17.664 c -15.821,7.125 -33.411,10.687 -52.774,10.687 v 0 c -38.473,0 -70.8124,-13.433 -97.0077,-40.301 -26.25,-26.914 -39.375,-58.531 -39.375,-94.847 v 0 c 0,-37.407 13.4726,-69.2972 40.4219,-95.6683 C 86.2305,31.8906 118.219,18.7031 155.246,18.7031 v 0 c 36.629,0 68.516,13.1875 95.664,39.5586 27.098,26.3711 40.645,57.0003 40.645,91.8833 v 0 V 420 h 18.863 V 153.93 c 0,-43.84 -15.617,-80.4534 -46.855,-109.8441 C 232.273,14.6953 196.168,0 155.246,0 V 0 C 111.73,0 74.9805,15.3125 44.9883,45.9414 14.9961,76.5703 0,112.563 0,153.93 v 0 c 0,43.789 15.543,80.375 46.6328,109.765 31.0899,29.391 67.2972,44.086 108.6132,44.086 v 0 c 21.91,0 42.02,-3.906 60.332,-11.726 z M 695.242,153.93 v 0 c 0,-42.059 -15.168,-78.1292 -45.508,-108.2112 -30.39,-30.1329 -66.769,-45.199269 -109.14,-45.199269 -42.414,0 -78.793,15.066369 -109.137,45.199269 -30.391,30.082 -45.586,66.1522 -45.586,108.2112 0,42.008 15.098,78.074 45.289,108.207 30.192,30.086 66.668,45.125 109.434,45.125 v 0 c 42.371,0 78.75,-15.141 109.14,-45.422 30.34,-30.281 45.508,-66.25 45.508,-107.91 z m -18.863,0 v 0 c 0,36.316 -13.371,67.836 -40.121,94.55 -26.797,26.719 -58.684,40.079 -95.664,40.079 -37.028,0 -68.914,-13.36 -95.66,-40.079 -26.801,-26.714 -40.2,-58.234 -40.2,-94.55 v 0 c 0,-37.063 13.301,-68.7777 39.899,-95.1487 26.597,-26.3711 58.586,-39.5586 95.961,-39.5586 37.328,0 69.293,13.1875 95.89,39.5586 26.598,26.371 39.895,58.0857 39.895,95.1487 z M 926.469,18.7031 V 0 C 883.703,0 847.223,14.9688 817.031,44.9023 786.84,74.8359 771.395,110.98 770.695,153.336 v 0 V 420 h 19.914 V 302.438 h 64.672 V 283.215 H 790.609 V 152.816 c 0,-36.664 13.922,-68.1832 41.766,-94.5543 27.848,-26.3711 59.211,-39.5586 94.094,-39.5586 z m 258.691,277.3519 -7.56,-17.664 c -15.81,7.125 -33.43,10.687 -52.84,10.687 v 0 c -38.43,0 -70.76,-13.433 -97.01,-40.301 -26.2,-26.914 -39.305,-58.531 -39.305,-94.847 v 0 c 0,-37.407 13.475,-69.2972 40.425,-95.6683 26.95,-26.3711 58.91,-39.5586 95.89,-39.5586 v 0 c 36.67,0 68.56,13.1875 95.66,39.5586 27.15,26.3711 40.72,57.0003 40.72,91.8833 v 0 V 420 H 1280 V 153.93 C 1280,110.09 1264.38,73.4766 1233.14,44.0859 1201.86,14.6953 1165.73,0 1124.76,0 v 0 c -43.47,0 -80.2,15.3125 -110.19,45.9414 -29.992,30.6289 -44.988,66.6216 -44.988,107.9886 v 0 c 0,43.789 15.547,80.375 46.638,109.765 31.04,29.391 67.22,44.086 108.54,44.086 v 0 c 21.95,0 42.09,-3.906 60.4,-11.726 v 0"
         style="fill:#9B9EA1;fill-opacity:1;fill-rule:nonzero;stroke:none"
         id="path14" /></g></g></svg>
